<?xml version="1.0" encoding="UTF-8" standalone="no"?>
<!-- Created with Inkscape (http://www.inkscape.org/) -->

<svg
   xmlns:dc="http://purl.org/dc/elements/1.1/"
   xmlns:cc="http://creativecommons.org/ns#"
   xmlns:rdf="http://www.w3.org/1999/02/22-rdf-syntax-ns#"
   xmlns:svg="http://www.w3.org/2000/svg"
   xmlns="http://www.w3.org/2000/svg"
   xmlns:sodipodi="http://sodipodi.sourceforge.net/DTD/sodipodi-0.dtd"
   xmlns:inkscape="http://www.inkscape.org/namespaces/inkscape"
   id="svg2"
   version="1.1"
   inkscape:version="0.91 r13725"
   width="699.95312"
   height="199.39294"
   viewBox="0 0 699.95312 199.39294"
   sodipodi:docname="logo_art_r.svg">
  <metadata
     id="metadata8">
    <rdf:RDF>
      <cc:Work
         rdf:about="">
        <dc:format>image/svg+xml</dc:format>
        <dc:type
           rdf:resource="http://purl.org/dc/dcmitype/StillImage" />
        <dc:title></dc:title>
      </cc:Work>
    </rdf:RDF>
  </metadata>
  <defs
     id="defs6" />
  <sodipodi:namedview
     pagecolor="#ffffff"
     bordercolor="#666666"
     borderopacity="1"
     objecttolerance="10"
     gridtolerance="10"
     guidetolerance="10"
     inkscape:pageopacity="0"
     inkscape:pageshadow="2"
     inkscape:window-width="1366"
     inkscape:window-height="744"
     id="namedview4"
     showgrid="false"
     fit-margin-top="0"
     fit-margin-left="0"
     fit-margin-right="0"
     fit-margin-bottom="0"
     inkscape:zoom="0.6343758"
     inkscape:cx="51.848909"
     inkscape:cy="-170.17247"
     inkscape:window-x="0"
     inkscape:window-y="24"
     inkscape:window-maximized="1"
     inkscape:current-layer="svg2" />
  <path
     style="fill:#000000"
     d="m 90.210851,192.3231 c 1.13966,-13.84425 1.20242,-14 5.64088,-14 4.700009,0 5.209969,1.74589 0.63871,2.18664 -2.85773,0.27554 -3.28783,0.70564 -3.56336,3.56336 -0.29191,3.02758 -0.10371,3.25 2.75,3.25 1.68485,0 3.06336,0.45 3.06336,1 0,0.55 -1.575,1 -3.5,1 -3.37506,0 -3.50055,0.13387 -3.51532,3.75 -0.008,2.0625 -0.49149,4.425 -1.07349,5.25 -0.76277,1.08124 -0.88582,-0.59382 -0.44078,-6 z m 13.102519,5.43007 c -4.761439,-4.76143 -1.50418,-14.43007 4.86133,-14.43007 2.78129,0 5.56574,3.77486 5.56574,7.54545 0,6.3111 -6.62581,10.68588 -10.42707,6.88462 z m 6.11451,-1.21573 c 0.65309,-0.41528 1.67755,-2.04413 2.27657,-3.61967 0.8632,-2.27041 0.76768,-3.35521 -0.46049,-5.22965 -2.87887,-4.3937 -8.50352,-1.68839 -8.50352,4.08997 0,4.6632 3.22691,6.95974 6.68744,4.75935 z m 7.23576,2.37553 c -0.31213,-0.31213 -0.23039,-2.93504 0.18164,-5.82869 0.41204,-2.89365 0.78201,-6.06841 0.82216,-7.05502 0.0401,-0.98661 0.6355,-1.70313 1.323,-1.59228 0.6875,0.11086 2.09867,-0.16603 3.13592,-0.61531 3.36586,-1.45788 5.08829,0.72287 5.41397,6.85458 0.16494,3.10537 -0.18832,6.43379 -0.78504,7.39649 -0.8352,1.34747 -1.01932,0.28306 -0.79989,-4.62434 0.22818,-5.10309 -0.0524,-6.59078 -1.40642,-7.45796 -2.40601,-1.54088 -5.77931,1.73503 -5.90822,5.73765 -0.12589,3.90883 -1.23233,7.92966 -1.97712,7.18488 z m 17.4765,-0.35518 c -1.62853,-1.0874 -3.3997,-4.81405 -3.3997,-7.15317 0,-1.12748 1.31313,-3.51957 2.91807,-5.31574 2.70053,-3.02233 3.14302,-3.18088 5.93566,-2.12693 3.24152,1.22336 4.14627,0.41148 4.14627,-3.72064 0,-1.05501 0.48032,-1.91821 1.06739,-1.91821 0.58706,0 0.8359,0.7875 0.55298,1.75 -0.28293,0.9625 -0.82222,5.47239 -1.19843,10.02197 -0.37621,4.54959 -1.07506,8.51364 -1.55298,8.80902 -0.47793,0.29537 -0.86896,0.0446 -0.86896,-0.55716 0,-0.77192 -0.5697,-0.78931 -1.93426,-0.059 -2.25944,1.20921 -4.12609,1.29812 -5.66604,0.26987 z m 7.43282,-4.55842 c 1.85661,-3.8912 0.7678,-7.48749 -2.51647,-8.31179 -3.22917,-0.81047 -6.31605,2.38894 -6.31605,6.5463 0,5.68315 6.357,6.95382 8.83252,1.76549 z m 14.16748,3.32373 c -2.87419,-2.87419 -2.65523,-8.43568 0.45455,-11.54545 3.03636,-3.03637 5.84371,-3.12415 8.50649,-0.26599 2.40581,2.58233 2.59785,5.82999 0.57595,9.73992 -2.32209,4.49041 -6.26226,5.34625 -9.53699,2.07152 z m 7.17126,-1.65499 c 2.21719,-2.00653 2.42224,-7.60756 0.34173,-9.33423 -4.28899,-3.55955 -10.20427,3.75906 -6.99592,8.65561 1.79822,2.74444 4.11087,2.9803 6.65419,0.67862 z m 7.26506,-4.11826 c 0.4709,-8.17029 2.18182,-13.89216 4.05215,-13.55175 0.52884,0.0962 1.12747,0.67281 1.33028,1.28125 0.20281,0.60844 -0.22525,0.97969 -0.95126,0.825 -2.11631,-0.45092 -2.28851,3.97079 -0.17596,4.51816 1.47205,0.38142 1.50462,0.49017 0.1751,0.58459 -1.83643,0.13042 -2.82536,2.92865 -2.86829,8.116 -0.0159,1.925 -0.48119,4.175 -1.03392,5 -0.6962,1.03916 -0.85845,-1.04176 -0.5281,-6.77325 z m 12.5393,7.08227 c -0.039,-1.29502 8.46123,-19.21517 9.13788,-19.26439 0.8556,-0.0622 6.18,18.99521 5.49765,19.67756 -0.55304,0.55303 -2.61115,-4.00853 -2.61115,-5.78729 0,-0.51419 -1.74541,-0.9349 -3.87868,-0.9349 -3.37296,0 -4.04186,0.39395 -5.13021,3.02146 -1.23278,2.9762 -2.96787,4.86783 -3.01549,3.28756 z m 10.40517,-11.05902 c -1.06776,-4.46722 -1.58005,-4.68137 -3.01795,-1.26163 -1.74875,4.15906 -1.79124,4.01163 1.15621,4.01163 2.24074,0 2.44643,-0.30383 1.86174,-2.75 z m 20.53087,11.32833 c -0.30578,-0.30579 -0.21885,-2.9235 0.19318,-5.81715 0.41204,-2.89365 0.78201,-6.04868 0.82216,-7.01118 0.0402,-0.9625 0.46772,-1.75 0.95016,-1.75 0.48244,0 0.66298,2.1375 0.4012,4.75 -0.61898,6.17712 -1.66675,10.52827 -2.3667,9.82833 z m 6.74333,-1.40707 c -2.53846,-2.80496 -2.13024,-8.78692 0.79956,-11.71671 2.8668,-2.86681 5.16886,-3.10534 7.71671,-0.79956 1.09416,0.9902 1.82874,1.19104 1.82874,0.5 0,-0.63525 0.36121,-1.15499 0.80269,-1.15499 0.44149,0 0.47946,2.5875 0.0844,5.75 -0.39507,3.1625 -0.75629,6.5926 -0.8027,7.62244 -0.0674,1.49606 -0.36801,1.63706 -1.49535,0.70145 -0.96456,-0.80051 -1.61601,-0.83925 -2.05902,-0.12245 -1.03371,1.67258 -5.06981,1.21456 -6.87502,-0.78018 z m 7.51627,-1.82625 c 2.21719,-2.00653 2.42224,-7.60756 0.34173,-9.33423 -3.5986,-2.98658 -9.43982,2.44475 -7.90913,7.35413 1.20989,3.88045 4.51261,4.74465 7.5674,1.9801 z m 8.45911,-3.27782 c 0.52816,-5.68272 0.38382,-7.07315 -0.73677,-7.0976 -0.97168,-0.0212 -0.86378,-0.339 0.3564,-1.04969 0.9625,-0.5606 1.75,-2.12192 1.75,-3.46959 0,-1.34767 0.50246,-2.45031 1.11658,-2.45031 0.65476,0 0.91692,1.04442 0.63385,2.52522 -0.31714,1.65898 0.0717,2.84917 1.13342,3.46959 1.47326,0.86088 1.46846,0.94706 -0.0543,0.97478 -1.31329,0.0239 -1.81954,1.423 -2.36798,6.54431 -0.38367,3.58265 -1.10044,6.76288 -1.59282,7.06719 -0.51788,0.32007 -0.61837,-2.42571 -0.23842,-6.5139 z m 6.26367,6.34948 c -0.45102,-3.90173 1.01725,-14.41667 2.0131,-14.41667 0.74843,0 -0.61963,14.04582 -1.44881,14.87501 -0.25208,0.25208 -0.50601,0.0458 -0.56429,-0.45834 z m 6.76095,-1.24541 c -2.53846,-2.80496 -2.13024,-8.78692 0.79956,-11.71671 3.19456,-3.19456 5.88747,-3.10649 8.55103,0.27967 5.16665,6.56834 -3.81486,17.55395 -9.35059,11.43704 z m 7.78831,-2.39377 c 1.9321,-2.75846 1.98851,-5.80469 0.15395,-8.3136 -1.97263,-2.69774 -6.58581,-1.00972 -7.88148,2.88394 -2.0845,6.26419 4.09954,10.60934 7.72753,5.42966 z m 5.89936,-0.2608 c 0.36154,-2.63771 0.65734,-6.10275 0.65734,-7.7001 0,-1.78468 0.48187,-2.81179 1.25,-2.66438 0.6875,0.13194 2.29475,-0.11389 3.57166,-0.54629 1.66574,-0.56407 2.8908,-0.27112 4.33612,1.03687 1.74079,1.57539 1.92325,2.57258 1.34306,7.34014 -1.00392,8.2495 -2.50492,8.55161 -2.23327,0.4495 0.22694,-6.76855 0.17403,-6.93243 -2.23804,-6.93243 -3.00999,0 -4.99381,3.4381 -5.01479,8.69098 -0.008,2.03004 -0.53554,4.01286 -1.17208,4.40626 -0.84745,0.52376 -0.98133,-0.56886 -0.5,-4.08055 z m 22.85734,3.28331 c -1.80874,-1.80874 -1.44576,-5.21785 0.86888,-8.16044 1.29947,-1.652 1.83671,-3.36165 1.4446,-4.59708 -1.53276,-4.82932 4.21414,-8.0444 6.85312,-3.83396 0.82698,1.31944 0.59361,2.35402 -1.02474,4.54296 -2.00266,2.70874 -2.01852,2.9296 -0.35778,4.98053 1.28487,1.58675 2.03034,1.85357 2.8602,1.02371 1.6479,-1.6479 2.66571,-0.0752 1.1406,1.7625 -0.98476,1.18656 -1.01932,1.84734 -0.1425,2.72416 1.86608,1.86608 1.32738,3.22067 -0.59238,1.48958 -1.52049,-1.37105 -2.07787,-1.39603 -4.25,-0.19042 -3.11479,1.72882 -5.24854,1.80992 -6.8,0.25846 z m 6.24115,-2.13331 c 1.76434,-1.29011 1.76419,-1.42367 -0.005,-4.12314 l -1.82798,-2.78984 -2.2678,2.63647 c -3.69921,4.30059 -0.49824,7.63908 4.10035,4.27651 z m 0.76599,-13.85955 c -1.63984,-1.63984 -3.7127,0.43301 -2.80318,2.80318 0.62549,1.63 0.7794,1.6349 2.33993,0.0744 1.30469,-1.30469 1.40611,-1.93468 0.46325,-2.87754 z m 15.73336,16.80002 c -0.78204,-0.78204 1.43321,-19.3391 2.42134,-20.28348 0.48193,-0.46059 0.54242,2.85641 0.13722,7.52467 -0.77198,8.8938 -1.716,13.60137 -2.55856,12.75881 z m 7.45588,-5.21603 c 0.36415,-3.24012 0.91349,-7.57863 1.22075,-9.64113 0.49376,-3.31434 0.3161,-3.75 -1.52923,-3.75 -1.14835,0 -2.0879,-0.45 -2.0879,-1 0,-0.55 2.25,-1 5,-1 2.75,0 5,0.45 5,1 0,0.55 -0.86968,1 -1.93261,1 -2.30063,0 -2.71349,1.23415 -3.59754,10.75395 -0.37049,3.98968 -1.13756,7.54068 -1.70459,7.89113 -0.69083,0.42695 -0.81253,-1.30648 -0.36888,-5.25395 z m 15.13791,3.64676 c -1.02045,-1.12758 -1.55347,-2.35204 -1.18449,-2.72102 0.36897,-0.36898 1.27614,0.1569 2.01592,1.16861 1.49093,2.03896 4.30937,1.52479 5.26292,-0.96012 0.3219,-0.83886 -0.87003,-3.7848 -2.65983,-6.57396 -2.79097,-4.34935 -3.08756,-5.39535 -2.1274,-7.50268 0.61364,-1.3468 1.76356,-2.44872 2.55536,-2.44872 2.53803,0 4.60323,1.17341 4.60323,2.61546 0,1.14526 -0.36109,1.17598 -1.97504,0.16805 -1.53416,-0.95809 -2.24243,-0.96604 -3.17287,-0.0356 -1.29219,1.29219 -0.81711,2.60696 3.24005,8.96684 1.81474,2.84472 1.8976,3.53533 0.71996,6 -1.65017,3.45358 -4.82709,4.03116 -7.27781,1.32314 z m 12.53829,-0.67275 c -2.61654,-3.32639 -2.63125,-6.38519 -0.0465,-9.67117 2.73064,-3.47145 5.53339,-4.21263 8.52287,-2.25385 3.45265,2.26227 3.4508,8.65103 -0.004,12.10533 -3.16834,3.16835 -5.88428,3.11055 -8.47287,-0.18031 z m 8.70129,-2.56651 c 2.92829,-6.13852 -2.87814,-11.85798 -6.94259,-6.8386 -2.1072,2.60228 -2.40298,7.06827 -0.5883,8.88295 2.0472,2.0472 6.10448,0.94581 7.53089,-2.04435 z m 5.18822,4.83318 c -0.79692,-0.80144 1.39486,-19.34776 2.39999,-20.30813 0.48205,-0.46058 0.54975,2.26211 0.15358,6.17632 -0.96784,9.56222 -1.91042,14.77861 -2.55357,14.13181 z m 7.66256,-1.15002 c -1.85316,-1.85316 -2.21998,-10.07656 -0.55679,-12.48179 0.75647,-1.09396 0.95534,0.0917 0.73469,4.38019 -0.23784,4.62254 0.0538,6.1073 1.36363,6.94201 2.66268,1.69687 4.62672,-0.81649 5.38583,-6.89218 0.37314,-2.98651 1.06798,-5.43002 1.54408,-5.43002 1.09815,0 0.0281,8.68748 -1.4781,12 -1.36525,3.00261 -4.75441,3.72072 -6.99334,1.48179 z m 13.00572,-5.4146 c 0.52816,-5.68272 0.38382,-7.07315 -0.73677,-7.0976 -0.97168,-0.0212 -0.86378,-0.339 0.3564,-1.04969 0.9625,-0.5606 1.75,-2.12192 1.75,-3.46959 0,-1.34767 0.50246,-2.45031 1.11658,-2.45031 0.65476,0 0.91692,1.04442 0.63385,2.52522 -0.31714,1.65898 0.0717,2.84917 1.13342,3.46959 1.48332,0.86675 1.48189,0.94687 -0.0174,0.97478 -1.2672,0.0236 -1.78935,1.48566 -2.32847,6.51989 -0.38223,3.56921 -1.11561,6.74945 -1.62972,7.06719 -0.56906,0.3517 -0.67779,-2.18718 -0.27794,-6.48948 z m 6.28129,6.51114 c -0.30578,-0.30579 -0.21885,-2.9235 0.19318,-5.81715 0.41204,-2.89365 0.78201,-6.04868 0.82216,-7.01118 0.0401,-0.9625 0.46772,-1.75 0.95016,-1.75 0.48244,0 0.66298,2.1375 0.4012,4.75 -0.61898,6.17712 -1.66675,10.52827 -2.3667,9.82833 z m 6.74333,-1.40707 c -2.56707,-2.83658 -2.12955,-8.7876 0.86631,-11.78347 3.10094,-3.10094 6.08427,-2.82053 8.79725,0.82688 1.79964,2.41949 1.88826,3.15168 0.81507,6.73368 -1.76287,5.88393 -7.04791,8.01381 -10.47863,4.22291 z m 8.27857,-3.35319 c 1.12572,-2.01218 1.2539,-3.38567 0.5133,-5.5 -1.8197,-5.19501 -7.85874,-3.67734 -9.02565,2.26824 -1.19938,6.11102 5.48237,8.64779 8.51235,3.23176 z m 5.4091,0.69862 c 0.36154,-2.63771 0.65734,-6.05506 0.65734,-7.59411 0,-2.00754 0.49452,-2.79148 1.75,-2.77421 0.9625,0.0132 2.69542,-0.27466 3.85092,-0.63979 3.83828,-1.21286 5.69272,1.96358 4.9083,8.40734 -0.99092,8.14005 -2.35845,8.42077 -2.17073,0.44559 0.14728,-6.25677 -0.0225,-6.8878 -1.926,-7.15977 -2.9376,-0.41971 -4.3858,1.77731 -5.08982,7.72159 -0.33449,2.8243 -1.06474,5.41726 -1.62276,5.76214 -0.6654,0.41124 -0.78835,-1.02354 -0.35725,-4.16878 z m -201.873,-2.01669 c -0.95759,-3.3 -1.95315,-6.5625 -2.21236,-7.25 -0.2592,-0.6875 -0.0308,-1.25 0.50764,-1.25 0.5384,0 1.64853,2.3625 2.46694,5.25 l 1.48803,5.25 2.37009,-5 c 2.91196,-6.14311 2.78806,-5.95527 3.47503,-5.2683 0.31076,0.31076 -0.99182,3.64826 -2.89463,7.41666 l -3.45967,6.85164 -1.74107,-6 z m 11.72201,-13.575 c 0.19708,-0.59125 0.78583,-1.075 1.30833,-1.075 0.5225,0 1.11125,0.48375 1.30833,1.075 0.19709,0.59125 -0.39166,1.075 -1.30833,1.075 -0.91667,0 -1.50542,-0.48375 -1.30833,-1.075 z m 29,0 c 0.19708,-0.59125 0.78583,-1.075 1.30833,-1.075 0.5225,0 1.11125,0.48375 1.30833,1.075 0.19709,0.59125 -0.39166,1.075 -1.30833,1.075 -0.91667,0 -1.50542,-0.48375 -1.30833,-1.075 z m 142,0 c 0.19708,-0.59125 0.78583,-1.075 1.30833,-1.075 0.5225,0 1.11125,0.48375 1.30833,1.075 0.19709,0.59125 -0.39166,1.075 -1.30833,1.075 -0.91667,0 -1.50542,-0.48375 -1.30833,-1.075 z m -99.75538,-16.33754 c -4.18589,-1.82297 -10.00097,-8.86164 -11.88201,-14.38219 -0.85486,-2.50885 -1.55428,-4.88736 -1.55428,-5.28558 0,-0.57535 5.30672,-2.91969 6.60908,-2.91969 0.17085,0 0.86902,1.86373 1.5515,4.14162 0.68247,2.27789 2.66617,5.65289 4.40822,7.5 2.68201,2.84377 3.85645,3.35838 7.66442,3.35838 5.51021,0 9.25095,-2.65384 11.87045,-8.4214 4.11579,-9.06207 1.72168,-17.0052 -8.82289,-29.27249 -9.74381,-11.33571 -12.25815,-16.60992 -12.27101,-25.740396 -0.0158,-11.19973 4.35172,-18.09571 13.12563,-20.72444 7.85866,-2.35451 16.79602,3.17534 20.40497,12.62525 1.90377,4.98494 1.54312,5.90273 -2.71294,6.90398 -2.37593,0.55894 -2.79958,0.2439 -3.81676,-2.83817 -1.52414,-4.61819 -6.29469,-8.54106 -10.3374,-8.50054 -3.84618,0.0385 -5.83793,1.44639 -8.01959,5.66854 -3.69339,7.14777 -1.17862,14.905774 8.36578,25.808246 9.57087,10.93269 13.25714,18.48204 13.30866,27.25565 0.10314,17.56482 -14.57097,30.62451 -27.89183,24.82323 z m 55.83464,-1.6824 c -5.08903,-2.51903 -9.80985,-7.68303 -12.66527,-13.85425 -1.69711,-3.66785 -2.10566,-6.49104 -2.10566,-14.55081 0,-13.79829 2.59773,-20.70032 10.94436,-29.07861 9.5762,-9.612546 20.04216,-11.973196 30.33751,-6.842808 6.26527,3.122118 10.66905,8.434438 13.38999,16.152478 2.67515,7.58815 2.18469,21.04481 -1.07414,29.47057 -2.8385,7.33899 -10.11218,15.43036 -16.57744,18.44104 -6.68729,3.11407 -16.26023,3.22697 -22.24935,0.26239 z m 20.67218,-7.87604 c 8.40594,-4.28839 14.05689,-15.1093 14.05689,-26.91731 0,-11.32231 -3.81491,-18.76137 -11.38391,-22.19859 -5.729,-2.60165 -10.35775,-2.36941 -16.67991,0.83688 -17.45558,8.85262 -20.45708,37.56945 -5.0145,47.9762 4.44798,2.9975 13.45826,3.14094 19.02143,0.30282 z m 71.55689,8.60389 c -4.40331,-2.05074 -9.19818,-7.52602 -10.95747,-12.51236 -1.93513,-5.48474 -1.95625,-14.98114 -0.0704,-31.62668 2.62697,-23.186216 2.14754,-21.493878 6.08914,-21.493878 2.08534,0 3.43797,0.49196 3.43681,1.25 -10e-4,0.6875 -0.93971,8.450008 -2.0859,17.250008 -2.62266,20.13586 -2.81254,29.01951 -0.70537,33.00236 2.74826,5.1946 5.38116,6.84022 11.67204,7.29526 5.35873,0.38761 6.0766,0.18039 9.35905,-2.70163 1.95532,-1.7168 4.2582,-4.8786 5.11751,-7.02624 1.13568,-2.83833 6.64459,-43.04016 6.64459,-48.489548 0,-0.31912 1.575,-0.58021 3.5,-0.58021 1.925,0 3.5,0.44098 3.5,0.97995 0,3.728218 -4.42518,38.848628 -5.60529,44.486388 -2.89198,13.81584 -9.6196,20.70467 -20.76128,21.25874 -3.76947,0.18746 -7.2897,-0.23348 -9.13343,-1.09216 z m 116.96129,-0.51138 c -5.67219,-2.57654 -11.80968,-9.92032 -13.93327,-16.67177 -2.64482,-8.40856 -1.82716,-22.00727 1.79662,-29.87989 5.51956,-11.9912 14.36184,-19.170078 24.94767,-20.254536 7.41591,-0.75972 13.12343,1.086478 18.40261,5.952666 5.64946,5.20749 7.99799,9.78744 9.49479,18.51613 3.09805,18.06642 -6.55152,37.75062 -20.90332,42.64077 -6.18344,2.10691 -14.78913,1.97509 -19.8051,-0.30337 z m 22.73613,-9.69267 c 5.39945,-3.79488 10.35238,-12.98918 11.3723,-21.11081 1.48617,-11.83443 -3.04603,-22.81519 -10.88586,-26.37459 -8.15614,-3.70301 -15.81312,-1.88173 -23.21824,5.52266 -6.04459,6.04399 -8.46562,12.53034 -8.46562,22.68083 0,10.12981 3.0717,16.2847 10.5,21.03933 4.77474,3.05616 15.09539,2.17983 20.69742,-1.75742 z m 98.80257,10.45452 c -2.91446,-1.15395 -10.01535,-7.80572 -9.96672,-9.33633 0.0183,-0.57588 0.96354,-2.16528 2.10054,-3.532 l 2.06727,-2.48495 2.01018,2.48495 c 7.09573,8.77166 17.98993,7.72071 20.90743,-2.01691 1.7068,-5.69681 0,-8.79457 -9.696,-17.59721 -6.0055,-5.45221 -8.7809,-8.77203 -9.99811,-11.95926 -3.11163,-8.14766 0.2953,-17.72764 7.63631,-21.472768 6.9943,-3.568198 13.4671,-2.274168 19.2954,3.857518 l 2.8564,3.00499 -1.822,3.08429 c -2.1302,3.60614 -2.9337,3.80672 -4.3852,1.09465 -1.3226,-2.47138 -6.0861,-5.01035 -9.4001,-5.01035 -3.716,0 -7.5738,3.87776 -8.2822,8.32512 -0.6019,3.77922 -0.489,3.94121 9.4144,13.5 9.0821,8.76609 10.1382,10.16803 11.2428,14.92488 2.1618,9.30967 -1.6761,18.97281 -9.0499,22.78592 -3.1953,1.6524 -11.1662,1.83789 -14.9305,0.34746 z M 93.740441,161.23829 c 0,-1.49099 26.906569,-84.815986 28.146619,-87.165196 1.34548,-2.54897 13.36465,-2.54897 14.69937,0 1.20583,2.30282 28.15401,85.798816 28.15401,87.232126 0,0.73237 -2.43629,1.00633 -7.21812,0.81169 l -7.21813,-0.29381 -2.90907,-9.25 -2.90908,-9.25 -15.16221,0 -15.16222,0 -3.02187,9.25 -3.02188,9.25 -7.18871,0.29381 c -4.997699,0.20426 -7.188709,-0.0635 -7.188709,-0.87862 z m 44.999999,-35.16401 c 0,-1.75733 -9.12851,-28.956018 -9.5701,-28.514418 -0.43053,0.43053 -9.4299,28.242748 -9.4299,29.142758 0,0.34126 4.275,0.62048 9.5,0.62048 6.92853,0 9.5,-0.33803 9.5,-1.24882 z m 38.47534,35.04482 c -0.27345,-0.7128 -0.37977,-20.871 -0.23626,-44.796 l 0.26092,-43.500006 12.65734,0.1865 c 19.10532,0.28152 23.68926,2.13044 28.41812,11.46242 6.71069,13.242888 2.98944,29.617906 -8.3808,36.878906 l -2.30533,1.47218 8.55533,18.91573 c 4.70544,10.40365 8.55534,19.31008 8.55534,19.79206 0,0.48199 -3.42982,0.74491 -7.62183,0.58427 l -7.62183,-0.29206 -6.43676,-14.5 c -3.54022,-7.975 -7.4229,-16.525 -8.62817,-19 l -2.19141,-4.5 -0.5,19 -0.5,19 -6.76373,0.296 c -4.83904,0.21178 -6.90522,-0.0728 -7.26093,-1 z m 28.07011,-56.25055 c 1.76203,-1.76203 2.44558,-3.52537 2.42275,-6.250008 -0.0528,-6.304418 -3.72185,-9.295448 -11.40246,-9.295448 l -4.56574,0 0,8.999998 0,9.000008 5.54545,0 c 4.55444,0 5.98411,-0.43865 8,-2.45455 z m 37.45455,20.95455 0,-36.500006 -6.42385,0 -6.42386,0 -0.32614,-8.12987 c -0.1988,-4.95546 0.0758,-8.28313 0.70332,-8.52237 0.56621,-0.21587 9.79121,-0.26993 20.5,-0.12013 l 19.47053,0.27237 0.29044,8.25 0.29044,8.25 -7.04044,0 -7.04044,0 0,36.500006 0,36.5 -7,0 -7,0 0,-36.5 z m 150.66734,35.75 c -0.45903,-0.76387 9.04419,-87.718226 9.83608,-90.000006 0.2386,-0.6875 1.79793,-1.25 3.4652,-1.25 2.29073,0 3.03138,0.45531 3.03138,1.86355 0,1.99516 -8.59804,78.776626 -9.61762,85.886456 -0.55271,3.85421 -0.87278,4.25 -3.43691,4.25 -1.55509,0 -3.03025,-0.3375 -3.27813,-0.75 z m 91.34198,-1.5 c 0.005,-1.2375 1.34656,-13.725 2.98096,-27.75 1.6344,-14.025 2.9802,-26.2875 2.99068,-27.25 0.0153,-1.41023 -0.85466,-1.75 -4.48096,-1.75 -4.47619,0 -4.5,-0.0185 -4.5,-3.500012 l 0,-3.499996 4.9121,0 c 5.53942,0 5.22724,0.63652 6.62097,-13.499998 1.11144,-11.27323 1.21252,-11.5 5.12584,-11.5 3.27688,0 3.46703,0.1753 2.98285,2.75 -0.28443,1.5125 -0.78334,5.45 -1.10869,8.75 -0.32535,3.3 -0.84294,7.6875 -1.1502,9.75 l -0.55867,3.749998 5.5879,0 5.5879,0 0,3.499996 0,3.500012 -6,0 c -4.51772,0 -6,0.35097 -6,1.42065 0,2.74954 -6.01576,55.09479 -6.47363,56.32935 -0.25498,0.6875 -1.82772,1.25 -3.49499,1.25 -2.47975,0 -3.02968,-0.40944 -3.02206,-2.25 z m 27.99068,0.39271 c 0,-2.15965 5.60998,-52.98083 6.61136,-59.89271 0.58365,-4.028618 0.78968,-4.250008 3.95507,-4.250008 l 3.33934,0 -0.55993,4.750008 c -0.30796,2.6125 -1.97426,17.35 -3.70288,32.75 l -3.14296,28 -3.25,0.31336 c -2.6799,0.25839 -3.25,-0.0347 -3.25,-1.67065 z m 90.67531,1.10729 c -0.2435,-0.4125 1.18885,-15.2625 3.183,-33 l 3.62572,-32.250008 3.38804,0 3.38803,0 -0.50721,4.500008 c -0.27897,2.475 -0.32374,4.5 -0.0995,4.5 0.22424,0 1.76374,-1.54443 3.42111,-3.43207 5.90383,-6.724098 15.74509,-9.341466 23.28241,-6.192178 4.38965,1.83412 9.21358,7.861428 10.55477,13.187758 1.51267,6.00738 1.25796,13.04701 -1.24599,34.43649 l -2.16569,18.5 -3.25,0.31336 c -3.99238,0.38494 -3.95676,1.02074 -1.25,-22.31336 2.34662,-20.22945 2.4557,-25.4736 0.62118,-29.86422 -4.42325,-10.586328 -19.19518,-10.105392 -26.80476,0.87271 -3.61347,5.21303 -5.35434,12.32364 -7.27966,29.73381 -2.51319,22.72615 -2.26546,21.7577 -5.56564,21.7577 -1.5692,0 -3.05231,-0.3375 -3.29581,-0.75 z M 35.240441,155.6419 c -3.3,-1.37882 -6.1746,-2.67671 -6.38799,-2.8842 -0.2134,-0.20748 0.18941,-2.43954 0.89513,-4.96012 1.23183,-4.39964 1.18737,-4.64702 -1.11201,-6.18749 C 15.290621,132.66965 5.7187504,110.90029 7.1367004,92.715054 l 0.55423,-7.10803 -4.09505,-1.60858 c -2.99898993,-1.17804 -3.93373997,-2.02892 -3.49239997,-3.17905 0.33146,-0.86376 1.33518997,-4.14128 2.23051997,-7.28339 0.89532,-3.1421 1.97634,-6.08871 2.40225,-6.54801 0.42591,-0.45931 2.27195,-0.0607 4.10231,0.88584 3.1626506,1.63547 3.3794306,1.63277 4.3649006,-0.0542 4.38144,-7.50043 9.34832,-14.02745 12.87127,-16.91424 8.93381,-7.32058 21.13677,-11.32742 30.3902,-9.97861 l 4.22449,0.61577 1.23291,-4.60971 c 0.67811,-2.53535 1.53301,-4.60972 1.89978,-4.60972 0.36678,0 2.51178,0.65092 4.76666,1.44648 2.25488,0.79557 4.33782,1.06133 4.62876,0.59058 0.29094,-0.47076 2.73531,-2.70316 5.43194,-4.9609 l 4.90295,-4.10498 13.34401,11.57834 c 7.339209,6.36809 13.479349,11.95558 13.644759,12.41665 0.31676,0.88295 -7.176,27.92318 -8.8072,31.78383 -0.52287,1.2375 -1.52282,2.24988 -2.222109,2.24973 -0.95828,-1.9e-4 -1.23654,2.6376 -1.12975,10.70936 l 0.14169,10.709636 3.358309,1.50826 c 1.84707,0.82954 3.49644,1.58596 3.66527,1.68093 0.2582,0.14524 -3.82225,15.37021 -4.32976,16.15522 -0.0936,0.14472 -1.911199,-0.46434 -4.039169,-1.35347 -2.12798,-0.88913 -3.99963,-1.22487 -4.15922,-0.7461 -1.03978,3.11933 -9.1419,13.92619 -12.96126,17.28812 -8.00221,7.04383 -14.34829,9.49654 -25.5967,9.89294 l -9.77914,0.34462 -1.17826,4.40538 c -0.64805,2.42296 -1.42243,4.36617 -1.72086,4.31825 -0.29843,-0.0479 -3.24259,-1.21525 -6.54259,-2.59407 z m 24.64744,-15.6793 c 10.88686,-2.56247 20.91461,-10.93521 26.31389,-21.97094 3.55126,-7.25851 5.85302,-18.853248 5.1453,-25.918566 -0.40108,-4.00404 -0.22637,-5.75 0.57537,-5.75 0.63323,0 0.93117,-0.22016 0.66208,-0.48925 -0.26908,-0.26909 -2.3411,0.23818 -4.60448,1.12726 l -4.11523,1.61651 0.55226,4.66297 c 1.18323,9.990526 -3.48696,22.989266 -10.81447,30.100366 -3.77942,3.66781 -3.99428,4.16442 -3.01592,6.97092 1.00723,2.88934 0.88202,3.10921 -2.85659,5.01651 -5.05744,2.58011 -5.34535,2.54003 -6.65373,-0.92628 -1.04546,-2.76973 -1.29978,-2.87653 -4.91055,-2.06217 -4.37503,0.98673 -11.92837,-0.19134 -16.54992,-2.58124 -3.8296,-1.98036 -11.52581,-9.75859 -12.40898,-12.54123 -0.39437,-1.24253 -1.1978,-1.81544 -2.05682,-1.46668 -0.77531,0.31478 -2.08711,0.84641 -2.9151,1.1814 -1.0486,0.42424 -1.92265,-0.41029 -2.88021,-2.75 -2.7812,-6.79556 -2.79242,-7.42581 -0.15735,-8.83606 2.31408,-1.23846 2.44111,-1.70452 1.89327,-6.946018 -1.15321,-11.033248 4.04392,-25.703878 11.39089,-32.154598 3.18174,-2.79361 3.34772,-3.2287 2.33739,-6.12694 -0.59816,-1.71589 -0.97303,-3.2165 -0.83305,-3.33471 0.13998,-0.11821 2.18417,-1.18814 4.54266,-2.37763 l 4.28815,-2.16271 0.982,2.81697 c 0.96763,2.77576 1.09889,2.81658 8.97229,2.78979 6.23494,-0.0212 7.87815,-0.31976 7.47985,-1.35897 -0.28075,-0.73248 -0.51044,-2.70141 -0.51044,-4.3754 l 0,-3.04362 -8.25,0.4547 c -6.4442,0.35517 -9.4343,1.06077 -13.66061,3.22363 -10.23166,5.23617 -19.16384,17.24866 -22.00999,29.60028 -1.74044,7.55313 -1.30761,21.022696 0.90584,28.188996 4.79331,15.51894 16.46107,27.01606 30.1465,29.7056 6.16936,1.21244 6.71287,1.20063 13.0157,-0.28289 z m 2.35256,-15.53944 c 7.48499,-3.47306 14.43724,-12.69219 15.95343,-21.15529 0.84436,-4.713038 1.37179,-11.944776 0.87117,-11.944776 -0.2255,0 -2.97829,1.86121 -6.1173,4.136038 -7.48516,5.424448 -15.2073,12.913178 -15.2073,14.747638 0,1.93704 -2.9444,5.11633 -4.73832,5.11633 -0.78559,0 -1.27835,-0.38508 -1.09502,-0.85572 0.18334,-0.47065 7.08334,-12.15799 15.33334,-25.971866 12.327,-20.64044 15.39468,-25.12114 17.21481,-25.14428 4.49987,-0.0572 5.76929,-7.00962 1.75956,-9.63689 -2.37346,-1.55515 -2.65012,-1.54218 -4.59215,0.21534 -1.54897,1.40179 -1.93726,2.66682 -1.55037,5.05098 0.44678,2.75316 -1.50314,6.51916 -14.50354,28.01162 -8.26085,13.656946 -15.42665,25.258316 -15.92402,25.780816 -0.54855,0.57628 -0.90429,-0.3127 -0.90429,-2.25979 0,-1.99103 0.7725,-3.87054 2.0345,-4.95 3.46703,-2.96553 7.78981,-18.869596 9.49015,-34.915526 l 0.65438,-6.1753 -4.49728,-0.67441 c -14.25302,-2.13737 -26.57596,8.39759 -29.64959,25.34762 -2.62147,14.456576 4.55458,29.906096 16.38702,35.280086 5.31659,2.41465 13.87374,2.41348 19.08082,-0.003 z m 21.5,-40.722516 c 0,-0.75765 -0.45,-1.37755 -1,-1.37755 -0.55,0 -1,0.41319 -1,0.91821 0,0.50502 -0.30926,1.74252 -0.68723,2.75 -0.60497,1.6125 -0.48526,1.66749 1,0.45934 0.92797,-0.75484 1.68723,-1.99234 1.68723,-2.75 z m -18.80551,-14.58306 c -1.26705,-1.26705 -3.19449,-0.18117 -3.19449,1.79971 0,1.19135 0.40659,1.25856 2.10736,0.34834 1.43276,-0.76679 1.78076,-1.45442 1.08713,-2.14805 z m 32.05783,-8.33413 c 0.30639,-1.60273 0.0727,-2.40389 -0.63342,-2.17167 -1.38801,0.45646 -2.11505,4.71131 -0.80503,4.71131 0.52413,0 1.17144,-1.14284 1.43845,-2.53964 z m -17.17117,-12.61199 c 0.99421,-1.85771 0.91954,-2.06262 -0.54661,-1.5 -0.93396,0.35839 -1.88631,0.65163 -2.11633,0.65163 -0.23002,0 -0.41821,0.675 -0.41821,1.5 0,2.19931 1.75388,1.82838 3.08115,-0.65163 z m 441.475549,31.92912 c -3.22846,-4.60927 -0.67313,-10.77749 4.46482,-10.77749 3.30642,0 4.97848,2.27687 4.97848,6.77927 0,5.5963 -6.42005,8.3145 -9.4433,3.99822 z M 98.740441,34.760224 c -8.525,-7.39928 -15.63742,-14.08266 -15.80537,-14.85195 -0.86582,-3.96579 3.19262,-1.43545 17.807949,11.10282 14.565,12.4951 17.61624,16.05712 14.49742,16.92432 -0.55,0.15293 -7.975,-5.77591 -16.499999,-13.17519 z m 2.999999,-5.05247 c -6.874999,-5.80107 -12.850399,-10.88368 -13.278659,-11.29468 -0.84985,-0.81562 5.71739,-18.70349943 6.75875,-18.40948943 0.35161,0.0993 7.835949,6.36131973 16.631849,13.91564943 l 15.99256,13.73515 -5.30225,5.55375 c -5.5381,5.80077 -6.96919,7.09676 -7.80225,7.06567 -0.275,-0.0103 -6.125,-4.76499 -13,-10.56605 z"
     id="path3338"
     inkscape:connector-curvature="0" />
</svg>
