<?xml version="1.0" encoding="UTF-8" standalone="no"?>
<!-- Created with Inkscape (http://www.inkscape.org/) -->

<svg
   xmlns:dc="http://purl.org/dc/elements/1.1/"
   xmlns:cc="http://creativecommons.org/ns#"
   xmlns:rdf="http://www.w3.org/1999/02/22-rdf-syntax-ns#"
   xmlns:svg="http://www.w3.org/2000/svg"
   xmlns="http://www.w3.org/2000/svg"
   xmlns:sodipodi="http://sodipodi.sourceforge.net/DTD/sodipodi-0.dtd"
   xmlns:inkscape="http://www.inkscape.org/namespaces/inkscape"
   id="svg2"
   version="1.1"
   inkscape:version="0.91 r13725"
   width="198.62766"
   height="199.36258"
   viewBox="0 0 198.62766 199.36258"
   sodipodi:docname="logo_art.svg">
  <metadata
     id="metadata8">
    <rdf:RDF>
      <cc:Work
         rdf:about="">
        <dc:format>image/svg+xml</dc:format>
        <dc:type
           rdf:resource="http://purl.org/dc/dcmitype/StillImage" />
        <dc:title></dc:title>
      </cc:Work>
    </rdf:RDF>
  </metadata>
  <defs
     id="defs6" />
  <sodipodi:namedview
     pagecolor="#ffffff"
     bordercolor="#666666"
     borderopacity="1"
     objecttolerance="10"
     gridtolerance="10"
     guidetolerance="10"
     inkscape:pageopacity="0"
     inkscape:pageshadow="2"
     inkscape:window-width="1366"
     inkscape:window-height="744"
     id="namedview4"
     showgrid="false"
     fit-margin-top="0"
     fit-margin-left="0"
     fit-margin-right="0"
     fit-margin-bottom="0"
     inkscape:zoom="1.18"
     inkscape:cx="-37.155442"
     inkscape:cy="198.78717"
     inkscape:window-x="0"
     inkscape:window-y="24"
     inkscape:window-maximized="1"
     inkscape:current-layer="svg2" />
  <path
     style="fill:#000000"
     d="m 55.368121,196.64626 c -5.38072,-1.84948 -10.02677,-3.60633 -10.32456,-3.90411 -0.29778,-0.29779 0.37796,-2.99868 1.50164,-6.002 l 2.04306,-5.46057 -6.19539,-3.78177 c -9.01377,-5.50215 -18.61231,-15.77744 -23.4513,-25.10474 -6.35159,-12.24289 -7.70716,-17.92334 -7.62928,-31.97015 l 0.0673,-12.13979 -5.8824894,-1.78107 c -3.23536,-0.97959 -5.70294972,-2.26669 -5.48352972,-2.86021 0.21943,-0.59352 1.87184002,-5.129127 3.67203972,-10.079127 1.80019,-4.95 3.37398,-9.12218 3.4973,-9.2715 0.12332,-0.14933 2.8433294,0.73078 6.0444694,1.95578 l 5.82026,2.22729 2.07491,-2.88241 c 9.30351,-12.924165 17.93813,-20.658096 29.07491,-26.042064 11.09585,-5.364183 17.44991,-6.753199 31.99282,-6.993735 l 12.992822,-0.214897 2.00718,-5.237818 c 1.10395,-2.8808 2.23218,-5.292316 2.50718,-5.358923 0.275,-0.06661 3.150747,0.514802 6.390557,1.292021 l 5.89057,1.413124 -3.89057,3.447678 c -3.7224,3.298658 -3.73928,3.340207 -0.39056,0.96126 1.925,-1.367529 7.60431,-5.48103 12.62069,-9.141113 5.01638,-3.660083 9.43473,-6.654696 9.81857,-6.654696 1.46636,0 42.56074,29.197612 42.56074,30.239464 0,0.603285 -3.19808,10.214773 -7.10685,21.358859 l -7.10685,20.261987 -4.14315,0.67332 c -6.57987,1.06932 -26.3489,7.79169 -24.26205,8.25021 1.72316,0.3786 1.83969,1.20509 1.38784,9.84354 -0.43245,8.2676 -0.93781,10.32971 -4.09906,16.72606 -3.45396,6.98862 -10.22993,14.62174 -16.66704,18.7754 -2.49119,1.60748 -2.49299,1.6201 -0.75,5.27518 0.96094,2.01511 1.74716,3.8338 1.74716,4.04154 0,0.58345 -13.976137,5.92983 -14.285887,5.46487 -0.15038,-0.22574 -1.0204,-2.0562 -1.93337,-4.0677 l -1.65995,-3.65728 -4.310392,1.00136 c -5.72273,1.32946 -16.94157,0.35048 -24.05913,-2.09945 -9.3972,-3.2346 -19.86323,-11.1043 -23.56517,-17.71931 -0.92644,-1.65544 -1.21684,-1.65936 -5.26075,-0.0709 -2.3541,0.92472 -4.36397,1.57364 -4.46637,1.44206 -1.40238,-1.80205 -5.50687,-12.85274 -5.04899,-13.5936 0.33983,-0.54986 2.0966,-1.48777 3.90395,-2.08424 l 3.28608,-1.08451 -0.99686,-6.02754 c -2.5879,-15.64793 5.62336,-33.689237 19.87713,-43.672817 l 2.98029,-2.087445 -1.73029,-3.628456 c -0.95166,-1.995651 -1.73029,-3.798421 -1.73029,-4.006158 0,-0.583449 13.97614,-5.929834 14.28589,-5.464875 0.15038,0.225737 1.01392,2.042618 1.91897,4.037512 l 1.64555,3.627078 5.3213,-0.967176 c 2.92672,-0.531948 8.13538,-0.665817 11.5748,-0.297486 l 6.253492,0.669692 0,3.987793 c 0,3.319551 -0.29325,3.904961 -1.750002,3.493461 -5.09726,-1.439872 -10.66949,-1.653397 -16.37469,-0.627475 -25.01758,4.498715 -40.10195,27.611202 -33.03279,50.613312 5.32543,17.32827 20.77812,28.37372 39.6951,28.37372 22.377379,0 39.901249,-15.57596 41.254929,-36.66912 0.3914,-6.09883 0.78243,-7.3786 2.41264,-7.896 1.07004,-0.33962 1.73215,-0.83087 1.47136,-1.09166 -0.26079,-0.2608 -3.3322,0.96279 -6.82536,2.71908 -14.12173,7.10011 -30.851189,19.48578 -30.851189,22.84071 0,2.5359 -4.42747,6.32047 -6.9366,5.92937 -1.83392,-0.28587 1.23217,-4.84554 21.909579,-32.58238 19.69283,-26.416107 24.46841,-32.25 26.39961,-32.25 3.57695,0 7.62741,-3.663252 7.62741,-6.898265 0,-5.828031 -7.35243,-9.066191 -12.01422,-5.291306 -2.10397,1.703694 -2.30635,2.746429 -1.73507,8.939571 0.19836,2.150312 -47.130269,65.44247 -48.365649,64.67897 -1.02786,-0.63526 -1.15868,-3.55234 -0.26388,-5.88417 0.34165,-0.89032 1.84316,-2.25068 3.33668,-3.02301 4.85186,-2.50899 11.7022,-22.05194 14.149252,-40.365597 1.11195,-8.32178 0.68412,-28.698297 -0.63015,-30.012567 -0.34204,-0.342037 -4.976782,-0.589892 -10.299422,-0.550787 -17.71097,0.130118 -31.64737,5.838175 -43.68271,17.891512 -11.22278,11.239562 -16.72059,23.970779 -16.84645,39.011119 -0.16389,19.58568 8.99348,36.88048 25.45676,48.07822 11.75506,7.99537 18.55687,9.92834 34.89486,9.91663 11.591012,-0.008 14.419142,-0.33891 19.999999,-2.33795 14.44314,-5.17345 26.79566,-15.52594 33.30429,-27.91189 5.11456,-9.73303 6.79365,-16.92796 6.59035,-28.23985 l -0.17072,-9.49938 3.88804,-1.17377 c 7.95423,-2.40133 7.63184,-2.92134 7.23846,11.67564 l -0.35042,13.00312 5,1.6198 c 2.75,0.89089 5.38323,1.97022 5.85162,2.3985 0.78288,0.71585 -4.69567,17.49404 -6.28128,19.23658 -0.38092,0.41862 -3.32641,-0.14505 -6.54554,-1.25259 -3.21912,-1.10754 -5.90055,-1.90004 -5.95872,-1.76112 -0.0582,0.13892 -1.83849,2.83915 -3.95626,6.00051 -6.10045,9.10657 -15.3005,17.01854 -25.83864,22.22102 -12.07549,5.96144 -21.080457,7.83954 -34.999319,7.29954 l -10.72813,-0.41621 -1.64479,5.07386 c -0.90463,2.79063 -1.93737,5.39927 -2.29497,5.79698 -0.35761,0.39771 -5.0526,-0.79009 -10.43332,-2.63957 z m 73.795639,-87.54629 c 1.89624,-2.09532 1.3891,-5.48562 -0.71682,-4.79208 -0.68721,0.22632 -1.39687,1.41626 -1.57703,2.64431 -0.41492,2.82821 -2.68574,3.73577 -4.93517,1.9724 -1.57173,-1.23211 -1.60649,-1.19513 -0.36483,0.38812 1.82013,2.32084 5.39153,2.22078 7.59385,-0.21275 z m -5.96629,-10.037247 c 0.99549,-1.1 1.58498,-2 1.30998,-2 -0.275,0 -1.31449,0.9 -2.30998,2 -0.99549,1.099997 -1.58498,1.999997 -1.30998,1.999997 0.275,0 1.31449,-0.9 2.30998,-1.999997 z m -25.251757,-5.48176 c -0.37937,-1.98454 0.0612,-2.68538 2.198847,-3.49812 2.92701,-1.11285 2.59385,-3.02012 -0.527547,-3.02012 -2.71003,0 -4.48279,4.07904 -2.98724,6.8735 1.49592,2.79515 1.89746,2.68675 1.31594,-0.35526 z M 150.69747,78.530496 c 0,-1.691377 0.74713,-2.832535 2.25,-3.436614 1.82166,-0.732216 1.90433,-0.916455 0.43426,-0.967775 -0.99866,-0.03486 -2.68616,0.402446 -3.75,0.971797 -2.32308,1.243276 -2.66683,5.964816 -0.43426,5.964816 0.93842,0 1.5,-0.948025 1.5,-2.532224 z M 124.12604,62.491292 c 1.81108,-1.811078 1.99905,-4.274059 0.49061,-6.428571 -0.82219,-1.174348 -0.91284,-1.01169 -0.41755,0.749224 0.50305,1.78847 0.10677,2.449162 -1.93449,3.225249 -2.54958,0.969349 -3.17848,2.080854 -1.90047,3.35886 1.042,1.041999 2.05997,0.79717 3.7619,-0.904762 z M 102.82503,52.31272 c 1.24387,-1.586056 1.2085,-1.621426 -0.37756,-0.377555 -0.9625,0.754844 -1.75,1.542344 -1.75,1.75 0,0.823035 0.82119,0.293303 2.12756,-1.372445 z m 51.37244,-8.101704 c -17.17095,-12.006418 -24,-17.32773 -24,-18.701197 0,-1.05584 0.675,-2.026722 1.5,-2.157516 0.825,-0.130793 12.3,7.290984 25.5,16.49284 17.61772,12.281495 24,17.257123 24,18.710417 0,1.088874 -0.675,2.082635 -1.5,2.208358 -0.825,0.125723 -12.3,-7.323084 -25.5,-16.552902 z m 4.29838,-6.484133 C 147.10996,29.936593 137.77728,23.11272 137.75656,22.56272 c -0.0207,-0.55 2.32001,-5.851612 5.20162,-11.78136 L 148.19747,0 l 24,16.653244 c 13.2,9.159285 24.80026,17.212201 25.77835,17.895369 1.59558,1.114462 0.75567,2.078325 -8.17211,9.378116 -5.47276,4.474795 -10.09802,8.097364 -10.27835,8.050154 -0.18034,-0.04721 -9.64362,-6.45971 -21.02951,-14.25 z"
     id="path3338"
     inkscape:connector-curvature="0" />
</svg>
