<?xml version="1.0" encoding="UTF-8" standalone="no"?>
<!-- Created with Inkscape (http://www.inkscape.org/) -->

<svg
   xmlns:dc="http://purl.org/dc/elements/1.1/"
   xmlns:cc="http://creativecommons.org/ns#"
   xmlns:rdf="http://www.w3.org/1999/02/22-rdf-syntax-ns#"
   xmlns:svg="http://www.w3.org/2000/svg"
   xmlns="http://www.w3.org/2000/svg"
   xmlns:sodipodi="http://sodipodi.sourceforge.net/DTD/sodipodi-0.dtd"
   xmlns:inkscape="http://www.inkscape.org/namespaces/inkscape"
   id="svg2"
   version="1.1"
   inkscape:version="0.91 r13725"
   width="599.60541"
   height="199.50974"
   viewBox="0 0 599.60541 199.50974"
   sodipodi:docname="logo_s.svg">
  <metadata
     id="metadata8">
    <rdf:RDF>
      <cc:Work
         rdf:about="">
        <dc:format>image/svg+xml</dc:format>
        <dc:type
           rdf:resource="http://purl.org/dc/dcmitype/StillImage" />
        <dc:title />
      </cc:Work>
    </rdf:RDF>
  </metadata>
  <defs
     id="defs6" />
  <sodipodi:namedview
     pagecolor="#ffffff"
     bordercolor="#666666"
     borderopacity="1"
     objecttolerance="10"
     gridtolerance="10"
     guidetolerance="10"
     inkscape:pageopacity="0"
     inkscape:pageshadow="2"
     inkscape:window-width="1366"
     inkscape:window-height="744"
     id="namedview4"
     showgrid="false"
     fit-margin-top="0"
     fit-margin-left="0"
     fit-margin-right="0"
     fit-margin-bottom="0"
     inkscape:zoom="1.4802102"
     inkscape:cx="283.23922"
     inkscape:cy="54.433296"
     inkscape:window-x="0"
     inkscape:window-y="24"
     inkscape:window-maximized="1"
     inkscape:current-layer="svg2" />
  <path
     style="fill:#ffffff"
     d="m 29.480538,198.38086 c -9.85613,-2.78196 -19.45311,-10.48947 -26.759499,-21.49102 -4.444931,-6.69292 -4.137201,-7.55313 6.17097,-17.25017 6.452039,-6.0695 7.997859,-7.09533 8.727459,-5.79162 0.48765,0.87138 2.9343,4.30832 5.43701,7.63766 7.08673,9.42743 15.7202,12.51398 23.43304,8.37753 5.19124,-2.78408 7.24624,-7.3603 6.84793,-15.2494 -0.37352,-7.39791 -3.02055,-12.6332 -12.51421,-24.75056 -9.71968,-12.40586 -18.48262,-26.16404 -21.32211,-33.476673 -3.67118,-9.45445 -4.46551,-15.91165 -2.99674,-24.36079 2.40522,-13.83603 10.22219,-25.10322 20.85555,-30.06069 7.41951,-3.45911 19.12002,-3.04939 27.19125,0.95216 5.98563,2.96756 15.5688,11.65342 19.63275,17.79445 3.05787,4.62076 3.15706,4.41889 -7.64494,15.55905 l -7.25547,7.48259 -1.56477,-2.28144 c -0.86062,-1.25479 -3.87201,-4.70246 -6.69199,-7.66149 -4.59734,-4.82404 -5.64303,-5.42962 -10.11819,-5.85963 -4.22706,-0.40616 -5.41672,-0.11335 -7.77256,1.91306 -3.65286,3.14205 -4.59523,9.95297 -2.0631,14.91091 2.25985,4.42482 11.41923,17.643003 17.958,25.915733 6.78156,8.57991 14.80495,22.15307 17.14253,29 1.40929,4.12788 1.87774,8.36898 1.87774,16.99999 0,11.43116 -0.0248,11.55169 -4.14877,20.13507 -5.28715,11.00443 -9.66123,15.82988 -17.58943,19.40449 -7.35437,3.31588 -19.30961,4.27417 -26.83245,2.15079 z m 66.75166,-47.94034 c 2.88896,-24.8875 5.830092,-50.2 6.535832,-56.250013 l 1.28316,-11 11.25,-0.28276 c 11.08153,-0.27851 11.25,-0.24908 11.25,1.96569 0,2.60747 -10.7526,102.713583 -11.55399,107.567073 l -0.53664,3.25 -11.74051,0 -11.740512,0 5.25266,-45.24999 z m 41.292412,42.99999 c -0.0326,-2.76176 11.08116,-106.755173 11.5954,-108.500003 0.2668,-0.90523 3.50848,-1.25 11.753,-1.25 l 11.38459,0 -0.46847,5.25 -0.46847,5.25 4.36527,-4.19925 c 6.43724,-6.19243 14.03585,-9.32963 23.02165,-9.50484 5.3617,-0.10454 8.41154,0.36577 11.30064,1.74264 5.05028,2.40683 10.6638,8.18538 13.0135,13.39609 l 1.83478,4.068814 5.39639,-5.963214 c 6.01829,-6.65043 14.68896,-11.51249 22.45607,-12.59219 4.91639,-0.68343 11.15678,0.2009 10.6452,1.50853 -0.16663,0.42593 -5.92797,6.62137 -12.80297,13.76765 l -12.5,12.993263 -11.35264,-3.55569 -11.35264,-3.55568 -4.35894,4.94694 c -2.39741,2.72082 -4.37623,5.23533 -4.39736,5.58779 -0.0211,0.35246 4.23658,4.07929 9.46158,8.28183 7.47496,6.01223 9.5,8.17931 9.5,10.16635 0,1.38895 -1.575,16.29419 -3.5,33.12276 -1.925,16.82857 -3.5,30.75284 -3.5,30.94281 0,0.18997 -5.175,0.3454 -11.5,0.3454 -8.8206,0 -11.5,-0.30555 -11.5,-1.31142 0,-0.72129 1.57114,-15.23379 3.49142,-32.25 4.23796,-37.55395 4.43989,-45.76083 1.24268,-50.50517 -3.07202,-4.55857 -8.5279,-6.61136 -13.56253,-5.10295 -8.52639,2.55457 -15.91764,12.37331 -18.94688,25.16955 -0.58591,2.475 -2.54088,17.8875 -4.3444,34.24999 l -3.27911,29.75 -11.30059,0 c -11.04459,0 -11.30119,-0.051 -11.32717,-2.25 z m 117.02658,-0.5284 c 0,-1.56414 1.57475,-17.21638 3.49945,-34.78275 1.92469,-17.56636 3.49969,-33.84128 3.5,-36.16647 l 5.5e-4,-4.22764 10.46666,-7.02236 c 5.75667,-3.86231 10.89929,-7.02237 11.42805,-7.02237 1.98088,0 2.24105,11.03691 0.63758,27.04788 -0.90621,9.04866 -2.8592,27.25211 -4.33997,40.45211 l -2.69232,24 -11.25,0.28275 -11.25,0.28275 0,-2.8439 z m 48.34348,-0.4716 c 0.31134,-1.7875 1.3214,-8.29658 2.24459,-14.46463 l 1.67853,-11.21463 6.85049,-6.61359 6.85049,-6.61358 -0.64567,-40.38087 -0.64567,-40.380893 9.48753,-9.88465 c 5.21815,-5.43657 10.99228,-11.97997 12.8314,-14.54091 l 3.34387,-4.65625 18.40994,0 18.40993,0 -0.51859,2.75 c -0.28523,1.5125 -0.78493,5.9 -1.11045,9.75 -0.32552,3.85 -0.84246,8.6875 -1.14876,10.75 l -0.55691,3.75 -18.86678,0 -18.86679,0 -0.5062,3.25 c -0.8343,5.3566 -2.58443,22.40154 -2.58443,25.17043 l 0,2.579583 18.79688,0 18.79689,0 -1.23874,11.75 c -0.68131,6.4625 -1.26491,12.7625 -1.29689,14 l -0.0581,2.25 -19.30029,0 -19.3003,0 -3.29549,30.74999 c -1.81252,16.9125 -3.52618,31.7625 -3.80812,33 -0.49664,2.17989 -0.88662,2.25 -12.5155,2.25 l -12.00288,0 0.56606,-3.25 z m 86.65652,1.12325 c 0,-1.16971 2.48356,-24.23221 5.51902,-51.24999 3.03547,-27.01779 6.65459,-59.473263 8.04249,-72.123263 1.38791,-12.65 2.73792,-24.0125 3.00003,-25.25 0.469,-2.21431 0.71818,-2.24991 15.70751,-2.24421 17.03816,0.007 23.56556,0.82032 32.01326,3.99148 14.7994,5.55549 23.3485,18.18161 24.4812,36.1562 1.1524,18.287373 -7.7588,35.095133 -22.2635,41.992013 -3.3,1.56912 -6.5625,2.85331 -7.25,2.85374 -0.6875,4.3e-4 -1.25,0.22756 -1.25,0.50472 0,0.27717 6.0326,15.57717 13.4058,33.99999 l 13.4057,33.49607 -12.6557,-0.0117 -12.6558,-0.0117 -12.9065,-31.93246 c -13.61286,-33.68015 -14.13,-34.84094 -15.093,-33.87795 -0.42126,0.42127 -7.43098,61.74844 -7.49626,65.58384 -0.002,0.1375 -5.40425,0.25 -12.00425,0.25 -11.57172,0 -12,-0.0759 -12,-2.12675 z m 55.70941,-93.03059 c 5.6662,-2.852353 8.2906,-7.339813 8.2906,-14.175933 0,-10.77279 -5.8776,-15.66673 -18.8157,-15.66673 -5.07615,0 -7.18686,0.3668 -7.193,1.25 -0.005,0.6875 -0.67587,6.875 -1.49131,13.75 -0.81544,6.875 -1.48653,13.801804 -1.49131,15.392903 l -0.009,2.8929 8.0279,-0.55025 c 5.57312,-0.38199 9.45092,-1.26658 12.68152,-2.89289 z m 36.2976,94.93637 c 0,-0.15347 14.9698,-34.25403 33.2577,-75.77902 l 33.2507,-75.500013 10.1254,-0.2837 10.1255,-0.28369 0.6427,2.56098 c 0.3536,1.40854 2.6766,12.5612 5.1623,24.7837 2.4858,12.22249 6.7491,33.135223 9.4741,46.472723 2.7251,13.3375 7.2091,35.3875 9.9646,48.99999 2.7555,13.6125 5.2427,25.77689 5.5271,27.03197 l 0.5171,2.28197 -11.7746,-0.28197 -11.7745,-0.28197 -1.7676,-8.5 c -0.9722,-4.675 -2.4828,-11.77039 -3.3568,-15.76754 l -1.5893,-7.26754 -24.0908,0.26754 -24.0909,0.26754 -6.6087,15.5 -6.6087,15.5 -13.1962,0.27903 c -7.2578,0.15346 -13.1929,0.15346 -13.1891,0 z m 81.993,-60.59189 c 0,-1.35705 -8.9659,-45.486383 -9.3119,-45.832403 -0.1772,-0.17722 -4.7476,9.90796 -10.1565,22.411533 -5.4088,12.50356 -10.0177,23.07124 -10.2419,23.48374 -0.2243,0.4125 6.3688,0.75 14.6513,0.75 8.2824,0 15.059,-0.36579 15.059,-0.81287 z m -259.00001,24.3663 c 0,-1.74996 -17.32696,-63.155053 -18.03797,-63.924863 -0.44268,-0.47928 -10.29023,5.801883 -21.88345,13.958113 l -21.07858,14.8295 0,13.1176 c 0,12.44393 -0.11966,13.23001 -2.33001,15.30652 l -2.33001,2.18894 -2.81108,-9.76462 c -3.71742,-12.91295 -6.08563,-16.82686 -15.0616,-24.89221 l -7.52905,-6.7652 2.28627,-2.28628 2.28628,-2.28627 8.9946,3.38317 c 4.94703,1.86075 9.72485,3.54045 10.61738,3.73267 1.07174,0.23082 7.60832,-6.40102 19.25,-19.530563 9.69497,-10.93403 17.62722,-20.22094 17.62722,-20.63759 0,-0.61573 -41.66955,-36.61723 -45.41759,-39.23972 -1.11882,-0.78284 0.40822,-2.25065 7.66727,-7.36986 l 3.74969,-2.64435 29.25031,12.58582 c 16.08768,6.92221 29.77606,12.72081 30.41864,12.88579 0.64258,0.16497 7.60496,-4.61873 15.47197,-10.63046 13.70993,-10.47671 21.09448,-14.56958 26.2871,-14.56958 3.31401,0 3.61477,1.66685 1.35328,7.5 -2.55768,6.59713 -5.00605,9.69723 -19.14291,24.23853 l -11.89815,12.23854 1.67848,38.565023 1.67848,38.56501 -4.01748,4.79845 c -4.33104,5.17294 -7.07909,7.75361 -7.07909,6.64789 z M 113.84153,69.784537 c -6.4136,-4.02756 -9.28627,-15.38134 -5.92631,-23.42284 4.73224,-11.32587 19.60304,-11.56728 24.67215,-0.40053 3.6534,8.04808 1.51451,18.63648 -4.66941,23.11555 -3.90611,2.82924 -10.19468,3.14545 -14.07643,0.70782 z m 47.95966,-7.82468 c -0.82035,-0.28615 -1.25,-2.58658 -1.25,-6.69273 0,-7.80844 -3.0833,-20.11224 -6.72815,-26.84845 -8.69462,-16.06892 -25.72277,-24.8009492 -41.27185,-21.1641892 -9.97422,2.3328596 -10.5,2.3061896 -10.5,-0.53268 0,-2.03971 0.8469,-2.78314 4.87371,-4.27826 28.83792,-10.70729 58.62629,15.1399992 58.62629,50.8698692 0,8.14028 -0.68345,9.71612 -3.75,8.64644 z m -10.70293,-4.51935 c -0.21459,-0.6875 -0.59464,-4.23763 -0.84457,-7.88917 -0.82773,-12.09369 -7.53884,-22.73256 -17.89581,-28.36953 -4.42307,-2.40734 -6.37684,-2.86318 -11.80355,-2.75393 -3.57673,0.072 -7.62814,0.27305 -9.00314,0.44677 -3.48204,0.43993 -4.08466,-3.51737 -0.81068,-5.32364 3.9332,-2.16998 16.57342,-1.58788 21.9468,1.01067 13.56319,6.55913 22.86388,21.85315 22.86388,37.59728 0,5.89852 -0.19688,6.53155 -2.03138,6.53155 -1.11727,0 -2.20696,-0.5625 -2.42155,-1.25 z m -8.85754,-0.44464 c -0.27332,-0.44295 -0.97151,-3.37401 -1.55154,-6.51347 -2.53099,-13.69921 -10.78414,-21.42007 -22.04054,-20.61905 -4.51431,0.32124 -4.59745,0.27291 -4.59745,-2.67284 l 0,-3 6.57975,0 c 5.57081,0 7.32042,0.46002 11.4099,3 8.24089,5.11841 13.69827,15.10715 13.91629,25.47123 0.0717,3.41001 -0.29916,4.55053 -1.5627,4.80536 -0.91122,0.18378 -1.88039,-0.0283 -2.15371,-0.47123 z"
     id="path3338"
     inkscape:connector-curvature="0" />
</svg>
